# xmcd CD database file
#
# Track frame offsets:
#	150
#	13877
#	31477
#	41125
#	57087
#	73842
#	87932
#	102900
#	114392
#	123787
#
# Disc length: 1860 seconds
#
# Revision: 0
# Processed by: cddbd v1.5.1PL2 Copyright (c) Steve Scherf et al.
# Submitted via: CDex 1.51
#
DISCID=8307420a
DTITLE=Lisa Karp - Fuscia Blues
DYEAR=2005
DGENRE=Jazz
TTITLE0=Why Do I Wait
TTITLE1=Everything's Broken
TTITLE2=Call Home
TTITLE3=Dose Of You
TTITLE4=Good News Rumors
TTITLE5=Curve Of The Truth
TTITLE6=Try
TTITLE7=My Life Hotel
TTITLE8=South Pacific
TTITLE9=Good News Rumors (Lounge Version)
EXTD=YEAR: 2005
EXTT0=
EXTT1=
EXTT2=
EXTT3=
EXTT4=
EXTT5=
EXTT6=
EXTT7=
EXTT8=
EXTT9=
PLAYORDER=
